HIERARCHY
ROOT Hips
{
	OFFSET	0	0	0
	CHANNELS 6  Xposition Yposition Zposition Xrotation Yrotation Zrotation
	JOINT Spine
	{
		OFFSET	0	7.00908	1.40711
		CHANNELS 3  Xrotation Yrotation Zrotation
		JOINT Spine1
		{
			OFFSET	0	11.9997	-2.14281
			CHANNELS 3  Xrotation Yrotation Zrotation
			JOINT Spine2
			{
				OFFSET	0	9.09621	0.974976
				CHANNELS 3  Xrotation Yrotation Zrotation
				JOINT Spine3
				{
					OFFSET	0	10.8855	3.23564
					CHANNELS 3  Xrotation Yrotation Zrotation
					JOINT Spine4
					{
						OFFSET	0	16.1139	-1.64996
						CHANNELS 3  Xrotation Yrotation Zrotation
						JOINT Neck
						{
							OFFSET	0	7.69267	-5.38915
							CHANNELS 3  Xrotation Yrotation Zrotation
							JOINT Head
							{
								OFFSET	0	9.23549	-2.76422
								CHANNELS 3  Xrotation Yrotation Zrotation
								End Site
								{
									OFFSET	0	19.2638	-0.93212
								}
							}
						}
					}
					JOINT LeftShoulder
					{
						OFFSET	-4.62846	19.5852	-9.23549
						CHANNELS 3  Xrotation Yrotation Zrotation
						JOINT LeftArm
						{
							OFFSET	-10.1082	-2.76422	3.54636
							CHANNELS 3  Xrotation Yrotation Zrotation
							JOINT LeftForeArm
							{
								OFFSET	-30.9178	-1.41114	2.20688
								CHANNELS 3  Xrotation Yrotation Zrotation
								JOINT LeftHand
								{
									OFFSET	-25.989	-1.79599	1.85507
									CHANNELS 3  Xrotation Yrotation Zrotation
									End Site
									{
										OFFSET	-9.4847	-0.655447	0.676963
									}
								}
							}
						}
					}
					JOINT RightShoulder
					{
						OFFSET	4.62846	19.5852	-9.23549
						CHANNELS 3  Xrotation Yrotation Zrotation
						JOINT RightArm
						{
							OFFSET	10.1082	-2.76422	3.54636
							CHANNELS 3  Xrotation Yrotation Zrotation
							JOINT RightForeArm
							{
								OFFSET	30.9178	-1.41114	2.20688
								CHANNELS 3  Xrotation Yrotation Zrotation
								JOINT RightHand
								{
									OFFSET	25.989	-1.79599	1.85507
									CHANNELS 3  Xrotation Yrotation Zrotation
									End Site
									{
										OFFSET	9.4847	-0.655447	0.676963
									}
								}
							}
						}
					}
				}
			}
		}
	}
	JOINT LeftUpLeg
	{
		OFFSET	-9.51492	-3.50454	-0.703555
		CHANNELS 3  Xrotation Yrotation Zrotation
		JOINT LeftLeg
		{
			OFFSET	-2.15663	-42.2584	-0.660591
			CHANNELS 3  Xrotation Yrotation Zrotation
			JOINT LeftFoot
			{
				OFFSET	-2.11138	-38.9194	3.34707
				CHANNELS 3  Xrotation Yrotation Zrotation
				JOINT LeftToeBase
				{
					OFFSET	0	-4.8091	-12.773
					CHANNELS 3  Xrotation Yrotation Zrotation
					End Site
					{
						OFFSET	0	-1.92364	-7.69456
					}
				}
			}
		}
	}
	JOINT RightUpLeg
	{
		OFFSET	9.51492	-3.50454	-0.703555
		CHANNELS 3  Xrotation Yrotation Zrotation
		JOINT RightLeg
		{
			OFFSET	2.15663	-42.2584	-0.660591
			CHANNELS 3  Xrotation Yrotation Zrotation
			JOINT RightFoot
			{
				OFFSET	2.11138	-38.9194	3.34707
				CHANNELS 3  Xrotation Yrotation Zrotation
				JOINT RightToeBase
				{
					OFFSET	0	-4.8091	-12.773
					CHANNELS 3  Xrotation Yrotation Zrotation
					End Site
					{
						OFFSET	0	-1.92364	-7.69456
					}
				}
			}
		}
	}
}
MOTION
Frames: 8
Frame Time: 0.020408
 118.368 88.0775 158.55 9.01149 -17.1165 -1.22121 180 179.997 -179.931 177.418 179.994 -179.885 177.522 179.982 -179.885 178.592 179.997 -179.931 178.408 -179.999 -179.977 178.01 174.695 173.792 179.35 164.629 179.476 175.493 -161.938 170.295 168.891 -145.729 -116.683 33.2045 -43.3884 22.2982 -0 18.752 -4.54221 1.39345 -1.14098 -2.65998 158.213 167.917 127.858 111.706 76.0385 -110.488 -0 2.17019 -34.8446 15.5909 5.47722 -5.1293 159.244 166.526 -179.798 173.882 -178.517 -175.319 179.972 180 -180 2.73783 -8.78825 0.86294 146.507 -158.405 179.326 24.1241 0.300599 -2.28562 179.689 180 -180
 118.552 88.1052 158.791 9.06801 -17.0037 -1.0669 180 179.995 -179.971 177.403 179.99 -179.952 177.499 179.971 -179.952 178.557 179.995 -179.971 178.463 -180 -179.99 178.178 174.989 174.394 179.406 165.719 179.55 174.833 -161.491 168.843 169.141 -145.565 -115.407 33.7551 -43.9361 22.9785 -0 17.9556 -4.7375 1.40653 -1.66701 -2.67146 157.925 168.343 128.422 112.79 75.7594 -111.752 -0 2.68564 -34.9935 15.5413 5.85016 -5.45445 159.712 166.983 -179.815 173.425 -178.821 -175.283 179.911 180 -180 2.60138 -8.81568 0.415336 146.839 -158.244 179.489 23.9487 0.140179 -2.03511 179.644 180 -180
 118.691 88.13 158.858 9.0322 -16.958 -0.924632 5.44228e-07 0.00612038 -0.00509478 177.396 179.988 179.992 177.48 179.963 179.992 178.518 179.994 179.995 178.54 180 179.998 178.403 175.237 175.024 179.479 166.761 179.636 174.352 -161.154 167.778 169.561 -145.611 -114.256 34.1222 -44.2437 23.2893 -0 17.2713 -4.92728 1.42503 -2.24523 -2.6913 158.053 168.932 128.774 112.983 75.6468 -112.001 -0 3.19716 -35.0498 15.5644 6.24644 -5.77468 159.982 167.487 -179.797 173.251 -179.069 -175.149 179.849 180 -180 2.47935 -8.83587 0.126353 147.113 -158.158 179.495 23.8483 0.0661969 -1.8992 179.596 180 -180
 118.888 88.1474 158.966 9.05976 -16.8516 -0.755308 9.79244e-06 0.0156115 -0.0359393 177.389 179.969 179.94 177.471 179.906 179.94 178.504 179.984 179.964 178.56 180 179.988 178.461 175.529 175.56 179.501 167.8 179.703 173.979 -161.008 166.954 170.012 -145.879 -113.279 34.2881 -44.3468 23.4778 -0 16.6152 -5.28455 1.40675 -2.70251 -2.6446 158.451 169.408 128.866 112.563 75.6701 -111.6 -0 3.63842 -35.0691 15.494 6.38257 -6.07416 160.285 168.069 -179.865 173.066 -179.247 -174.914 179.788 180 -180 2.26885 -8.81466 -0.24859 147.366 -158.067 179.491 23.7847 -0.035578 -1.78119 179.545 180 -180
 119.095 88.1694 159.101 9.09248 -16.6794 -0.629985 1.2669e-05 0.0157435 -0.0461066 177.38 179.969 179.923 177.469 179.906 179.923 178.52 179.984 179.954 178.505 180 179.985 178.301 175.835 176.011 179.457 168.789 179.759 173.682 -160.861 166.293 170.338 -146.189 -112.485 34.1673 -44.1781 23.4226 -0 15.8861 -5.79322 1.37912 -3.00426 -2.58463 158.62 169.404 128.55 112.27 75.7435 -111.293 -0 4.02077 -35.1539 15.373 6.66598 -6.27812 160.743 168.701 179.959 172.814 -179.428 -174.615 179.717 180 -180 2.11963 -8.88882 -0.634589 147.623 -158.026 179.615 23.6982 -0.102714 -1.65399 179.491 180 -180
 119.212 88.1842 159.285 9.1122 -16.5199 -0.47986 2.40454e-05 0.0217467 -0.063352 177.369 179.957 179.894 177.464 179.87 179.894 178.531 179.978 179.937 178.456 179.999 179.979 178.158 176.206 176.275 179.419 169.702 179.765 173.432 -160.359 165.724 170.582 -146.329 -111.919 34.0104 -43.9632 23.2345 -0 15.1821 -6.22697 1.37869 -3.07903 -2.58184 158.529 169.257 128.575 111.519 75.8262 -110.452 -0 4.52427 -35.3962 15.3585 6.93011 -6.48903 161.034 169.407 179.816 172.645 -179.575 -174.31 179.643 180 -180 2.05988 -8.97538 -0.900407 147.789 -157.989 179.59 23.5808 -0.130955 -1.54614 179.434 180 -180
 119.238 88.1984 159.43 9.2225 -16.6715 -0.282562 1.45135e-05 0.00845129 -0.0983945 177.343 179.983 179.836 177.432 179.949 179.836 178.494 179.992 179.902 178.497 179.999 179.967 178.287 176.495 176.379 179.463 170.301 179.741 173.24 -160.025 165.287 170.71 -146.566 -111.443 33.8517 -43.7715 23.0074 -0 14.4062 -6.65532 1.22532 -3.21786 -2.29109 156.839 168.821 128.904 110.077 75.9583 -108.794 -0 5.11195 -35.8747 15.2057 7.25261 -6.72597 161.286 170.229 179.695 172.559 -179.815 -174.006 179.564 180 -180 1.99405 -9.01214 -1.08814 147.908 -158.034 179.627 23.4585 -0.105153 -1.4829 179.372 180 -180
 119.307 88.2176 159.482 9.40982 -16.5353 -0.152571 2.46112e-05 0.0118886 -0.11861 177.322 179.976 179.802 177.413 179.929 179.802 178.486 179.988 179.881 178.474 179.999 179.96 178.236 176.665 176.547 179.45 170.766 179.753 173.069 -159.581 164.894 170.693 -146.658 -110.962 33.6778 -43.5314 22.7706 -0 13.6857 -7.06074 1.25772 -3.4 -2.34727 155.844 168.767 129.624 107.041 76.3258 -105.683 -0 5.59675 -36.159 14.9902 7.47185 -6.83402 161.45 171.117 179.553 172.552 -179.94 -173.706 179.481 180 -180 1.69992 -9.1468 -1.17904 148.061 -158.012 179.539 23.4055 -0.0943887 -1.41949 179.309 180 -180
